<svg xmlns="http://www.w3.org/2000/svg" viewBox="0 0 80 80">
<g fill="#b22">
	<path d="M16,80H8c-4.4,0-8-3.6-8-8L0,8c0-4.4,3.6-8,8-8h0c4.4,0,8,3.6,8,8V80z"/>
	<path d="M42,80h-8V30h8c4.4,0,8,3.6,8,8v34C50,76.4,46.4,80,42,80z"/>
	<path d="M50,38v8H0V30h42C46.4,30,50,33.6,50,38z"/>
	<path d="M50,64v8c0,4.4-3.6,8-8,8H8c-4.4,0-8-3.6-8-8v-8H50z"/>
</g>
<g fill="#fff">
	<path d="M14,78H8c-3.3,0-6-2.7-6-6V50h12V78z"/>
	<path d="M42,78h-6V50h12v22C48,75.3,45.3,78,42,78z"/>
	<path d="M48,66l0,6c0,3.3-2.7,6-6,6L8,78c-3.3,0-6-2.7-6-6l0-6L48,66z"/>
	<path d="M14,30H2V8c0-3.3,2.7-6,6-6h0c3.3,0,6,2.7,6,6V30z"/>
</g>
</svg>