<svg xmlns="http://www.w3.org/2000/svg" viewBox="0 0 80 80"><g fill="#b22"><path d="M16 80H8c-4.4 0-8-3.6-8-8V8c0-4.4 3.6-8 8-8s8 3.6 8 8v72zM42 80h-8V30h8c4.4 0 8 3.6 8 8v34c0 4.4-3.6 8-8 8z"/><path d="M50 38v8H0V30h42c4.4 0 8 3.6 8 8zM50 64v8c0 4.4-3.6 8-8 8H8c-4.4 0-8-3.6-8-8v-8h50z"/></g><g fill="#fff"><path d="M14 78H8c-3.3 0-6-2.7-6-6V50h12v28zM42 78h-6V50h12v22c0 3.3-2.7 6-6 6z"/><path d="M48 66v6c0 3.3-2.7 6-6 6H8c-3.3 0-6-2.7-6-6v-6h46zM14 30H2V8c0-3.3 2.7-6 6-6s6 2.7 6 6v22z"/></g></svg>