<svg xmlns="http://www.w3.org/2000/svg" width="24" height="24"><path d="M10.49 2a.998.998 0 0 0-.98.809l-.334 1.714c-.821.31-1.58.744-2.246 1.291l-1.645-.566a1 1 0 0 0-1.191.445L2.586 8.307c-.24.415-.152.941.209 1.255l1.318 1.147C4.045 11.13 4 11.559 4 12c0 .44.045.87.113 1.291l-1.318 1.146c-.361.315-.448.841-.21 1.256l1.509 2.614a1 1 0 0 0 1.191.447l1.645-.567a7.984 7.984 0 0 0 2.246 1.29l.334 1.714c.092.47.501.809.98.809h3.02a.998.998 0 0 0 .98-.809l.334-1.714c.821-.31 1.58-.744 2.246-1.291l1.645.566a1 1 0 0 0 1.191-.445l1.508-2.616a1 1 0 0 0-.209-1.254l-1.318-1.146c.068-.421.113-.85.113-1.291 0-.44-.045-.87-.113-1.291l1.318-1.146c.361-.315.448-.841.21-1.256l-1.509-2.614a1 1 0 0 0-1.191-.447l-1.645.566a7.984 7.984 0 0 0-2.246-1.289L14.49 2.81A.998.998 0 0 0 13.51 2h-3.02zM12 8a4 4 0 1 1 0 8 4 4 0 0 1 0-8z"/></svg>